G04 EAGLE Gerber RS-274X export*
G75*
%MOMM*%
%FSLAX34Y34*%
%LPD*%
%INTop Copper*%
%IPPOS*%
%AMOC8*
5,1,8,0,0,1.08239X$1,22.5*%
G01*
%ADD10C,1.430000*%
%ADD11C,1.705100*%
%ADD12C,1.580000*%
%ADD13C,1.386000*%
%ADD14C,0.406400*%

G36*
X520726Y3815D02*
X520726Y3815D01*
X520775Y3814D01*
X522360Y3971D01*
X522388Y3978D01*
X522416Y3978D01*
X522577Y4025D01*
X525507Y5238D01*
X525563Y5273D01*
X525623Y5299D01*
X525688Y5351D01*
X525716Y5368D01*
X525728Y5383D01*
X525754Y5404D01*
X527996Y7646D01*
X528035Y7699D01*
X528081Y7746D01*
X528121Y7819D01*
X528140Y7846D01*
X528146Y7864D01*
X528162Y7893D01*
X529375Y10823D01*
X529382Y10851D01*
X529395Y10876D01*
X529429Y11040D01*
X529586Y12625D01*
X529584Y12652D01*
X529589Y12700D01*
X529589Y444500D01*
X529585Y444526D01*
X529586Y444575D01*
X529429Y446160D01*
X529422Y446188D01*
X529422Y446216D01*
X529375Y446377D01*
X528162Y449307D01*
X528127Y449363D01*
X528101Y449423D01*
X528049Y449488D01*
X528032Y449516D01*
X528017Y449528D01*
X527996Y449554D01*
X525754Y451796D01*
X525701Y451835D01*
X525654Y451881D01*
X525581Y451921D01*
X525554Y451940D01*
X525536Y451946D01*
X525507Y451962D01*
X522577Y453175D01*
X522549Y453182D01*
X522524Y453195D01*
X522360Y453229D01*
X520775Y453386D01*
X520748Y453384D01*
X520700Y453389D01*
X12700Y453389D01*
X12674Y453385D01*
X12625Y453386D01*
X11040Y453229D01*
X11012Y453222D01*
X10984Y453222D01*
X10823Y453175D01*
X7893Y451962D01*
X7837Y451927D01*
X7777Y451901D01*
X7712Y451849D01*
X7684Y451832D01*
X7672Y451817D01*
X7646Y451796D01*
X5404Y449554D01*
X5365Y449501D01*
X5319Y449454D01*
X5279Y449381D01*
X5260Y449354D01*
X5254Y449336D01*
X5238Y449307D01*
X4025Y446377D01*
X4018Y446349D01*
X4005Y446324D01*
X4001Y446305D01*
X4000Y446302D01*
X3999Y446293D01*
X3971Y446160D01*
X3814Y444575D01*
X3816Y444548D01*
X3811Y444500D01*
X3811Y12700D01*
X3815Y12674D01*
X3814Y12625D01*
X3971Y11040D01*
X3978Y11012D01*
X3978Y10984D01*
X4025Y10823D01*
X5238Y7893D01*
X5273Y7837D01*
X5299Y7777D01*
X5351Y7712D01*
X5368Y7684D01*
X5383Y7672D01*
X5404Y7646D01*
X7646Y5404D01*
X7699Y5365D01*
X7746Y5319D01*
X7819Y5279D01*
X7846Y5260D01*
X7864Y5254D01*
X7893Y5238D01*
X10823Y4025D01*
X10851Y4018D01*
X10876Y4005D01*
X11040Y3971D01*
X12625Y3814D01*
X12652Y3816D01*
X12700Y3811D01*
X520700Y3811D01*
X520726Y3815D01*
G37*
%LPC*%
G36*
X261625Y41375D02*
X261625Y41375D01*
X258161Y42810D01*
X255510Y45461D01*
X254075Y48925D01*
X254075Y52675D01*
X255510Y56139D01*
X258161Y58790D01*
X261625Y60225D01*
X265375Y60225D01*
X268839Y58790D01*
X271490Y56139D01*
X272033Y54827D01*
X272095Y54727D01*
X272155Y54627D01*
X272160Y54623D01*
X272163Y54618D01*
X272254Y54543D01*
X272342Y54467D01*
X272348Y54465D01*
X272352Y54461D01*
X272461Y54419D01*
X272570Y54375D01*
X272577Y54374D01*
X272582Y54373D01*
X272600Y54372D01*
X272737Y54357D01*
X430011Y54357D01*
X430102Y54371D01*
X430192Y54379D01*
X430222Y54391D01*
X430254Y54396D01*
X430335Y54439D01*
X430419Y54475D01*
X430451Y54501D01*
X430472Y54512D01*
X430494Y54535D01*
X430550Y54580D01*
X453420Y77450D01*
X453473Y77524D01*
X453533Y77594D01*
X453545Y77624D01*
X453564Y77650D01*
X453591Y77737D01*
X453625Y77822D01*
X453629Y77863D01*
X453636Y77885D01*
X453635Y77917D01*
X453643Y77989D01*
X453643Y204673D01*
X473075Y224105D01*
X473142Y224199D01*
X473213Y224294D01*
X473215Y224300D01*
X473218Y224305D01*
X473253Y224416D01*
X473289Y224527D01*
X473289Y224534D01*
X473291Y224540D01*
X473288Y224657D01*
X473287Y224773D01*
X473285Y224781D01*
X473284Y224786D01*
X473278Y224803D01*
X473240Y224935D01*
X472550Y226601D01*
X472550Y230599D01*
X474080Y234293D01*
X476907Y237120D01*
X480601Y238650D01*
X484599Y238650D01*
X488293Y237120D01*
X491120Y234293D01*
X492650Y230599D01*
X492650Y226601D01*
X491120Y222907D01*
X488293Y220080D01*
X484599Y218550D01*
X480601Y218550D01*
X478935Y219240D01*
X478821Y219267D01*
X478707Y219295D01*
X478701Y219295D01*
X478695Y219296D01*
X478578Y219285D01*
X478462Y219276D01*
X478457Y219274D01*
X478450Y219273D01*
X478343Y219225D01*
X478236Y219180D01*
X478230Y219175D01*
X478225Y219173D01*
X478212Y219160D01*
X478105Y219075D01*
X460980Y201950D01*
X460927Y201876D01*
X460867Y201806D01*
X460855Y201776D01*
X460836Y201750D01*
X460809Y201663D01*
X460775Y201578D01*
X460771Y201537D01*
X460764Y201515D01*
X460765Y201483D01*
X460757Y201411D01*
X460757Y74727D01*
X433273Y47243D01*
X272737Y47243D01*
X272622Y47224D01*
X272506Y47207D01*
X272500Y47205D01*
X272494Y47204D01*
X272391Y47149D01*
X272286Y47096D01*
X272282Y47091D01*
X272277Y47088D01*
X272197Y47004D01*
X272114Y46920D01*
X272111Y46914D01*
X272107Y46910D01*
X272099Y46893D01*
X272033Y46773D01*
X271490Y45461D01*
X268839Y42810D01*
X265375Y41375D01*
X261625Y41375D01*
G37*
%LPD*%
%LPC*%
G36*
X315818Y105845D02*
X315818Y105845D01*
X312711Y107132D01*
X310332Y109511D01*
X309045Y112618D01*
X309045Y115982D01*
X310332Y119089D01*
X312711Y121468D01*
X315818Y122755D01*
X319182Y122755D01*
X319944Y122439D01*
X320058Y122412D01*
X320171Y122384D01*
X320178Y122384D01*
X320184Y122383D01*
X320300Y122394D01*
X320417Y122403D01*
X320422Y122405D01*
X320429Y122406D01*
X320536Y122454D01*
X320643Y122499D01*
X320649Y122504D01*
X320653Y122506D01*
X320667Y122518D01*
X320774Y122604D01*
X339120Y140950D01*
X339173Y141024D01*
X339233Y141094D01*
X339245Y141124D01*
X339264Y141150D01*
X339291Y141237D01*
X339325Y141322D01*
X339329Y141363D01*
X339336Y141385D01*
X339335Y141417D01*
X339343Y141489D01*
X339343Y182313D01*
X339324Y182428D01*
X339307Y182544D01*
X339305Y182550D01*
X339304Y182556D01*
X339249Y182659D01*
X339196Y182763D01*
X339191Y182768D01*
X339188Y182773D01*
X339104Y182853D01*
X339020Y182936D01*
X339014Y182939D01*
X339010Y182943D01*
X338993Y182951D01*
X338873Y183017D01*
X338111Y183332D01*
X335732Y185711D01*
X334445Y188818D01*
X334445Y192182D01*
X335732Y195289D01*
X338111Y197668D01*
X338873Y197983D01*
X338973Y198045D01*
X339009Y198067D01*
X339042Y198084D01*
X339047Y198089D01*
X339073Y198105D01*
X339077Y198110D01*
X339082Y198113D01*
X339157Y198203D01*
X339175Y198224D01*
X339212Y198263D01*
X339216Y198272D01*
X339233Y198292D01*
X339235Y198298D01*
X339239Y198303D01*
X339281Y198411D01*
X339284Y198418D01*
X339315Y198486D01*
X339317Y198500D01*
X339325Y198520D01*
X339326Y198528D01*
X339327Y198532D01*
X339328Y198550D01*
X339343Y198687D01*
X339343Y230011D01*
X339329Y230102D01*
X339321Y230192D01*
X339309Y230222D01*
X339304Y230254D01*
X339261Y230335D01*
X339225Y230419D01*
X339199Y230451D01*
X339188Y230472D01*
X339165Y230494D01*
X339120Y230550D01*
X299316Y270354D01*
X299222Y270421D01*
X299128Y270492D01*
X299122Y270494D01*
X299117Y270497D01*
X299006Y270531D01*
X298894Y270568D01*
X298887Y270568D01*
X298882Y270570D01*
X298765Y270567D01*
X298648Y270565D01*
X298641Y270563D01*
X298636Y270563D01*
X298618Y270557D01*
X298487Y270519D01*
X297175Y269975D01*
X293425Y269975D01*
X289961Y271410D01*
X287310Y274061D01*
X285875Y277525D01*
X285875Y281275D01*
X287310Y284739D01*
X289961Y287390D01*
X291273Y287933D01*
X291373Y287995D01*
X291473Y288055D01*
X291477Y288060D01*
X291482Y288063D01*
X291557Y288154D01*
X291633Y288242D01*
X291635Y288248D01*
X291639Y288252D01*
X291681Y288361D01*
X291725Y288470D01*
X291726Y288477D01*
X291727Y288482D01*
X291728Y288500D01*
X291743Y288637D01*
X291743Y312673D01*
X294050Y314980D01*
X305828Y326758D01*
X305896Y326853D01*
X305966Y326946D01*
X305968Y326952D01*
X305971Y326957D01*
X306006Y327069D01*
X306042Y327180D01*
X306042Y327187D01*
X306044Y327193D01*
X306041Y327309D01*
X306039Y327426D01*
X306037Y327433D01*
X306037Y327438D01*
X306031Y327456D01*
X305993Y327587D01*
X305625Y328474D01*
X305625Y331926D01*
X306946Y335114D01*
X309386Y337554D01*
X312574Y338875D01*
X316026Y338875D01*
X319214Y337554D01*
X321654Y335114D01*
X322975Y331926D01*
X322975Y328474D01*
X321654Y325286D01*
X319214Y322846D01*
X316026Y321525D01*
X312574Y321525D01*
X311687Y321893D01*
X311574Y321919D01*
X311460Y321948D01*
X311454Y321947D01*
X311448Y321949D01*
X311331Y321938D01*
X311215Y321929D01*
X311209Y321926D01*
X311203Y321926D01*
X311095Y321878D01*
X310989Y321833D01*
X310983Y321828D01*
X310978Y321826D01*
X310964Y321813D01*
X310858Y321728D01*
X299080Y309950D01*
X299027Y309876D01*
X298967Y309806D01*
X298955Y309776D01*
X298936Y309750D01*
X298909Y309663D01*
X298875Y309578D01*
X298871Y309537D01*
X298864Y309515D01*
X298865Y309483D01*
X298857Y309411D01*
X298857Y288637D01*
X298876Y288522D01*
X298893Y288406D01*
X298895Y288400D01*
X298896Y288394D01*
X298951Y288291D01*
X299004Y288186D01*
X299009Y288182D01*
X299012Y288177D01*
X299096Y288097D01*
X299180Y288014D01*
X299186Y288011D01*
X299190Y288007D01*
X299207Y287999D01*
X299327Y287933D01*
X300639Y287390D01*
X303290Y284739D01*
X304725Y281275D01*
X304725Y277525D01*
X304181Y276213D01*
X304155Y276100D01*
X304126Y275986D01*
X304127Y275980D01*
X304125Y275974D01*
X304136Y275857D01*
X304145Y275741D01*
X304148Y275735D01*
X304148Y275729D01*
X304196Y275621D01*
X304241Y275515D01*
X304246Y275509D01*
X304248Y275504D01*
X304261Y275490D01*
X304346Y275384D01*
X344150Y235580D01*
X346457Y233273D01*
X346457Y198687D01*
X346460Y198669D01*
X346458Y198651D01*
X346477Y198565D01*
X346493Y198456D01*
X346495Y198450D01*
X346496Y198444D01*
X346507Y198424D01*
X346510Y198411D01*
X346545Y198353D01*
X346551Y198341D01*
X346604Y198237D01*
X346609Y198232D01*
X346612Y198227D01*
X346632Y198208D01*
X346636Y198200D01*
X346672Y198169D01*
X346696Y198147D01*
X346780Y198064D01*
X346786Y198061D01*
X346790Y198057D01*
X346807Y198049D01*
X346821Y198041D01*
X346823Y198040D01*
X346827Y198038D01*
X346927Y197983D01*
X347689Y197668D01*
X350068Y195289D01*
X351355Y192182D01*
X351355Y188818D01*
X350068Y185711D01*
X347689Y183332D01*
X346927Y183017D01*
X346827Y182955D01*
X346727Y182895D01*
X346723Y182890D01*
X346718Y182887D01*
X346643Y182797D01*
X346567Y182708D01*
X346565Y182702D01*
X346561Y182697D01*
X346519Y182589D01*
X346475Y182480D01*
X346474Y182472D01*
X346473Y182468D01*
X346472Y182450D01*
X346457Y182313D01*
X346457Y138227D01*
X325804Y117574D01*
X325736Y117480D01*
X325666Y117385D01*
X325664Y117379D01*
X325660Y117374D01*
X325626Y117263D01*
X325590Y117151D01*
X325590Y117145D01*
X325588Y117139D01*
X325591Y117022D01*
X325592Y116905D01*
X325594Y116898D01*
X325594Y116893D01*
X325601Y116876D01*
X325639Y116744D01*
X325955Y115982D01*
X325955Y112618D01*
X324668Y109511D01*
X322289Y107132D01*
X319182Y105845D01*
X315818Y105845D01*
G37*
%LPD*%
%LPC*%
G36*
X366618Y105845D02*
X366618Y105845D01*
X363511Y107132D01*
X361132Y109511D01*
X359845Y112618D01*
X359845Y115982D01*
X361132Y119089D01*
X363511Y121468D01*
X364273Y121783D01*
X364373Y121845D01*
X364473Y121905D01*
X364477Y121910D01*
X364482Y121913D01*
X364557Y122003D01*
X364633Y122092D01*
X364635Y122098D01*
X364639Y122103D01*
X364681Y122211D01*
X364725Y122320D01*
X364726Y122328D01*
X364727Y122332D01*
X364728Y122350D01*
X364743Y122487D01*
X364743Y141173D01*
X473075Y249505D01*
X473142Y249599D01*
X473213Y249694D01*
X473215Y249700D01*
X473218Y249705D01*
X473253Y249816D01*
X473289Y249927D01*
X473289Y249934D01*
X473291Y249940D01*
X473288Y250057D01*
X473287Y250173D01*
X473285Y250181D01*
X473284Y250186D01*
X473278Y250203D01*
X473240Y250335D01*
X472550Y252001D01*
X472550Y255999D01*
X474080Y259693D01*
X476907Y262520D01*
X480601Y264050D01*
X484599Y264050D01*
X488293Y262520D01*
X491120Y259693D01*
X492650Y255999D01*
X492650Y252001D01*
X491120Y248307D01*
X488293Y245480D01*
X484599Y243950D01*
X480601Y243950D01*
X478935Y244640D01*
X478821Y244667D01*
X478707Y244695D01*
X478701Y244695D01*
X478695Y244696D01*
X478578Y244685D01*
X478462Y244676D01*
X478457Y244674D01*
X478450Y244673D01*
X478343Y244625D01*
X478236Y244580D01*
X478230Y244575D01*
X478225Y244573D01*
X478212Y244560D01*
X478105Y244475D01*
X372080Y138450D01*
X372027Y138376D01*
X371967Y138306D01*
X371955Y138276D01*
X371936Y138250D01*
X371909Y138163D01*
X371875Y138078D01*
X371871Y138037D01*
X371864Y138015D01*
X371865Y137983D01*
X371857Y137911D01*
X371857Y122487D01*
X371876Y122372D01*
X371893Y122256D01*
X371895Y122250D01*
X371896Y122244D01*
X371951Y122141D01*
X372004Y122037D01*
X372009Y122032D01*
X372012Y122027D01*
X372096Y121947D01*
X372180Y121864D01*
X372186Y121861D01*
X372190Y121857D01*
X372207Y121849D01*
X372327Y121783D01*
X373089Y121468D01*
X375468Y119089D01*
X376755Y115982D01*
X376755Y112618D01*
X375468Y109511D01*
X373089Y107132D01*
X369982Y105845D01*
X366618Y105845D01*
G37*
%LPD*%
%LPC*%
G36*
X392018Y182045D02*
X392018Y182045D01*
X388911Y183332D01*
X386532Y185711D01*
X385245Y188818D01*
X385245Y192182D01*
X386532Y195289D01*
X388911Y197668D01*
X389673Y197983D01*
X389773Y198045D01*
X389809Y198067D01*
X389842Y198084D01*
X389847Y198089D01*
X389873Y198105D01*
X389877Y198110D01*
X389882Y198113D01*
X389957Y198203D01*
X389975Y198224D01*
X390012Y198263D01*
X390016Y198272D01*
X390033Y198292D01*
X390035Y198298D01*
X390039Y198303D01*
X390081Y198411D01*
X390084Y198418D01*
X390115Y198486D01*
X390117Y198500D01*
X390125Y198520D01*
X390126Y198528D01*
X390127Y198532D01*
X390128Y198550D01*
X390143Y198687D01*
X390143Y207873D01*
X406854Y224584D01*
X406921Y224678D01*
X406992Y224772D01*
X406994Y224778D01*
X406997Y224783D01*
X407031Y224894D01*
X407068Y225006D01*
X407068Y225013D01*
X407070Y225018D01*
X407067Y225135D01*
X407065Y225252D01*
X407063Y225259D01*
X407063Y225264D01*
X407057Y225282D01*
X407019Y225413D01*
X406475Y226725D01*
X406475Y230475D01*
X407910Y233939D01*
X410561Y236590D01*
X414025Y238025D01*
X417775Y238025D01*
X419087Y237481D01*
X419200Y237455D01*
X419314Y237426D01*
X419320Y237427D01*
X419326Y237425D01*
X419443Y237436D01*
X419559Y237445D01*
X419565Y237448D01*
X419571Y237448D01*
X419679Y237496D01*
X419785Y237541D01*
X419791Y237546D01*
X419796Y237548D01*
X419810Y237561D01*
X419916Y237646D01*
X462920Y280650D01*
X465227Y282957D01*
X472686Y282957D01*
X472801Y282976D01*
X472917Y282993D01*
X472923Y282995D01*
X472929Y282996D01*
X473032Y283051D01*
X473136Y283104D01*
X473141Y283109D01*
X473146Y283112D01*
X473226Y283196D01*
X473309Y283280D01*
X473312Y283286D01*
X473316Y283290D01*
X473324Y283307D01*
X473390Y283427D01*
X474080Y285093D01*
X476907Y287920D01*
X480601Y289450D01*
X484599Y289450D01*
X488293Y287920D01*
X491120Y285093D01*
X492650Y281399D01*
X492650Y277401D01*
X491120Y273707D01*
X488293Y270880D01*
X484599Y269350D01*
X480601Y269350D01*
X476907Y270880D01*
X474080Y273707D01*
X473390Y275373D01*
X473328Y275473D01*
X473268Y275573D01*
X473263Y275577D01*
X473260Y275582D01*
X473169Y275657D01*
X473081Y275733D01*
X473075Y275735D01*
X473071Y275739D01*
X472962Y275781D01*
X472853Y275825D01*
X472845Y275826D01*
X472841Y275827D01*
X472823Y275828D01*
X472686Y275843D01*
X468489Y275843D01*
X468398Y275829D01*
X468308Y275821D01*
X468278Y275809D01*
X468246Y275804D01*
X468165Y275761D01*
X468081Y275725D01*
X468049Y275699D01*
X468028Y275688D01*
X468006Y275665D01*
X467950Y275620D01*
X424946Y232616D01*
X424879Y232522D01*
X424808Y232428D01*
X424806Y232422D01*
X424803Y232417D01*
X424769Y232306D01*
X424732Y232194D01*
X424732Y232187D01*
X424730Y232182D01*
X424733Y232065D01*
X424735Y231948D01*
X424737Y231941D01*
X424737Y231936D01*
X424743Y231918D01*
X424781Y231787D01*
X425325Y230475D01*
X425325Y226725D01*
X423890Y223261D01*
X421239Y220610D01*
X417775Y219175D01*
X414025Y219175D01*
X412713Y219719D01*
X412600Y219745D01*
X412486Y219774D01*
X412480Y219773D01*
X412474Y219775D01*
X412357Y219764D01*
X412241Y219755D01*
X412235Y219752D01*
X412229Y219752D01*
X412121Y219704D01*
X412015Y219659D01*
X412009Y219654D01*
X412004Y219652D01*
X411990Y219639D01*
X411884Y219554D01*
X397480Y205150D01*
X397427Y205076D01*
X397367Y205006D01*
X397355Y204976D01*
X397336Y204950D01*
X397309Y204863D01*
X397275Y204778D01*
X397271Y204737D01*
X397264Y204715D01*
X397265Y204683D01*
X397257Y204611D01*
X397257Y198687D01*
X397260Y198669D01*
X397258Y198651D01*
X397277Y198565D01*
X397293Y198456D01*
X397295Y198450D01*
X397296Y198444D01*
X397307Y198424D01*
X397310Y198411D01*
X397345Y198353D01*
X397351Y198341D01*
X397404Y198237D01*
X397409Y198232D01*
X397412Y198227D01*
X397432Y198208D01*
X397436Y198200D01*
X397472Y198169D01*
X397496Y198147D01*
X397580Y198064D01*
X397586Y198061D01*
X397590Y198057D01*
X397607Y198049D01*
X397621Y198041D01*
X397623Y198040D01*
X397627Y198038D01*
X397727Y197983D01*
X398489Y197668D01*
X400868Y195289D01*
X402155Y192182D01*
X402155Y188818D01*
X400868Y185711D01*
X398489Y183332D01*
X395382Y182045D01*
X392018Y182045D01*
G37*
%LPD*%
%LPC*%
G36*
X48801Y269350D02*
X48801Y269350D01*
X45107Y270880D01*
X42280Y273707D01*
X40750Y277401D01*
X40750Y281399D01*
X42280Y285093D01*
X45107Y287920D01*
X48801Y289450D01*
X52799Y289450D01*
X54465Y288760D01*
X54579Y288733D01*
X54693Y288705D01*
X54699Y288705D01*
X54705Y288704D01*
X54821Y288715D01*
X54938Y288724D01*
X54943Y288726D01*
X54950Y288727D01*
X55057Y288775D01*
X55164Y288820D01*
X55170Y288825D01*
X55175Y288827D01*
X55188Y288840D01*
X55295Y288925D01*
X123220Y356850D01*
X125527Y359157D01*
X153475Y359157D01*
X153590Y359176D01*
X153706Y359193D01*
X153712Y359195D01*
X153718Y359196D01*
X153820Y359251D01*
X153925Y359304D01*
X153930Y359309D01*
X153935Y359312D01*
X154015Y359396D01*
X154098Y359480D01*
X154101Y359486D01*
X154105Y359490D01*
X154112Y359507D01*
X154178Y359627D01*
X154546Y360514D01*
X156986Y362954D01*
X160174Y364275D01*
X163626Y364275D01*
X166814Y362954D01*
X169254Y360514D01*
X170575Y357326D01*
X170575Y353874D01*
X169254Y350686D01*
X166814Y348246D01*
X163626Y346925D01*
X160174Y346925D01*
X156986Y348246D01*
X154546Y350686D01*
X154178Y351573D01*
X154117Y351673D01*
X154057Y351773D01*
X154052Y351777D01*
X154049Y351782D01*
X153959Y351857D01*
X153870Y351933D01*
X153864Y351935D01*
X153859Y351939D01*
X153751Y351981D01*
X153642Y352025D01*
X153634Y352026D01*
X153630Y352027D01*
X153611Y352028D01*
X153475Y352043D01*
X128789Y352043D01*
X128698Y352029D01*
X128608Y352021D01*
X128578Y352009D01*
X128546Y352004D01*
X128465Y351961D01*
X128381Y351925D01*
X128349Y351899D01*
X128328Y351888D01*
X128306Y351865D01*
X128250Y351820D01*
X60325Y283895D01*
X60257Y283800D01*
X60187Y283706D01*
X60185Y283700D01*
X60181Y283695D01*
X60147Y283584D01*
X60111Y283472D01*
X60111Y283466D01*
X60109Y283460D01*
X60112Y283343D01*
X60113Y283227D01*
X60115Y283219D01*
X60115Y283214D01*
X60122Y283197D01*
X60160Y283065D01*
X60850Y281399D01*
X60850Y277401D01*
X59320Y273707D01*
X56493Y270880D01*
X52799Y269350D01*
X48801Y269350D01*
G37*
%LPD*%
%LPC*%
G36*
X48801Y320150D02*
X48801Y320150D01*
X45107Y321680D01*
X42280Y324507D01*
X40750Y328201D01*
X40750Y332199D01*
X42280Y335893D01*
X45107Y338720D01*
X48801Y340250D01*
X52799Y340250D01*
X54465Y339560D01*
X54532Y339544D01*
X54542Y339540D01*
X54555Y339539D01*
X54579Y339533D01*
X54693Y339505D01*
X54699Y339505D01*
X54705Y339504D01*
X54822Y339515D01*
X54938Y339524D01*
X54944Y339526D01*
X54950Y339527D01*
X55057Y339575D01*
X55164Y339620D01*
X55170Y339625D01*
X55175Y339627D01*
X55188Y339640D01*
X55231Y339674D01*
X55237Y339677D01*
X55243Y339684D01*
X55295Y339725D01*
X123220Y407650D01*
X125527Y409957D01*
X133663Y409957D01*
X133778Y409976D01*
X133894Y409993D01*
X133900Y409995D01*
X133906Y409996D01*
X134009Y410051D01*
X134114Y410104D01*
X134118Y410109D01*
X134123Y410112D01*
X134203Y410196D01*
X134286Y410280D01*
X134289Y410286D01*
X134293Y410290D01*
X134301Y410307D01*
X134367Y410427D01*
X134910Y411739D01*
X137561Y414390D01*
X141025Y415825D01*
X144775Y415825D01*
X148239Y414390D01*
X150890Y411739D01*
X152325Y408275D01*
X152325Y404525D01*
X150890Y401061D01*
X148239Y398410D01*
X144775Y396975D01*
X141025Y396975D01*
X137561Y398410D01*
X134910Y401061D01*
X134367Y402373D01*
X134305Y402473D01*
X134245Y402573D01*
X134240Y402577D01*
X134237Y402582D01*
X134146Y402657D01*
X134058Y402733D01*
X134052Y402735D01*
X134048Y402739D01*
X133939Y402781D01*
X133830Y402825D01*
X133823Y402826D01*
X133818Y402827D01*
X133800Y402828D01*
X133663Y402843D01*
X128789Y402843D01*
X128698Y402829D01*
X128608Y402821D01*
X128578Y402809D01*
X128546Y402804D01*
X128465Y402761D01*
X128381Y402725D01*
X128349Y402699D01*
X128328Y402688D01*
X128306Y402665D01*
X128250Y402620D01*
X60325Y334695D01*
X60278Y334629D01*
X60270Y334621D01*
X60267Y334614D01*
X60258Y334601D01*
X60187Y334506D01*
X60185Y334500D01*
X60182Y334495D01*
X60147Y334385D01*
X60111Y334273D01*
X60111Y334266D01*
X60109Y334260D01*
X60112Y334143D01*
X60113Y334027D01*
X60115Y334019D01*
X60116Y334014D01*
X60122Y333997D01*
X60160Y333865D01*
X60850Y332199D01*
X60850Y328201D01*
X59320Y324507D01*
X56493Y321680D01*
X52799Y320150D01*
X48801Y320150D01*
G37*
%LPD*%
%LPC*%
G36*
X141025Y295375D02*
X141025Y295375D01*
X137561Y296810D01*
X134910Y299461D01*
X133475Y302925D01*
X133475Y306675D01*
X134910Y310139D01*
X137561Y312790D01*
X141025Y314225D01*
X144775Y314225D01*
X148239Y312790D01*
X150890Y310139D01*
X151433Y308827D01*
X151495Y308727D01*
X151555Y308627D01*
X151560Y308623D01*
X151563Y308618D01*
X151653Y308543D01*
X151742Y308467D01*
X151748Y308465D01*
X151752Y308461D01*
X151861Y308419D01*
X151970Y308375D01*
X151978Y308374D01*
X151982Y308373D01*
X152000Y308372D01*
X152137Y308357D01*
X191911Y308357D01*
X192002Y308371D01*
X192092Y308379D01*
X192122Y308391D01*
X192154Y308396D01*
X192235Y308439D01*
X192319Y308475D01*
X192351Y308501D01*
X192372Y308512D01*
X192394Y308535D01*
X192450Y308580D01*
X236028Y352158D01*
X236096Y352253D01*
X236166Y352346D01*
X236168Y352352D01*
X236171Y352357D01*
X236206Y352469D01*
X236242Y352580D01*
X236242Y352587D01*
X236244Y352593D01*
X236241Y352709D01*
X236239Y352826D01*
X236237Y352833D01*
X236237Y352838D01*
X236231Y352856D01*
X236193Y352987D01*
X235825Y353874D01*
X235825Y357326D01*
X237146Y360514D01*
X239586Y362954D01*
X242774Y364275D01*
X246226Y364275D01*
X249414Y362954D01*
X251854Y360514D01*
X253175Y357326D01*
X253175Y353874D01*
X251854Y350686D01*
X249414Y348246D01*
X246226Y346925D01*
X242774Y346925D01*
X241887Y347293D01*
X241774Y347319D01*
X241660Y347348D01*
X241654Y347347D01*
X241648Y347349D01*
X241531Y347338D01*
X241415Y347329D01*
X241409Y347326D01*
X241403Y347326D01*
X241295Y347278D01*
X241189Y347233D01*
X241183Y347228D01*
X241178Y347226D01*
X241164Y347213D01*
X241058Y347128D01*
X197480Y303550D01*
X195173Y301243D01*
X152137Y301243D01*
X152022Y301224D01*
X151906Y301207D01*
X151900Y301205D01*
X151894Y301204D01*
X151791Y301149D01*
X151686Y301096D01*
X151682Y301091D01*
X151677Y301088D01*
X151597Y301004D01*
X151514Y300920D01*
X151511Y300914D01*
X151507Y300910D01*
X151499Y300893D01*
X151433Y300773D01*
X150890Y299461D01*
X148239Y296810D01*
X144775Y295375D01*
X141025Y295375D01*
G37*
%LPD*%
%LPC*%
G36*
X141025Y142975D02*
X141025Y142975D01*
X137561Y144410D01*
X134910Y147061D01*
X133475Y150525D01*
X133475Y154275D01*
X134910Y157739D01*
X137561Y160390D01*
X141025Y161825D01*
X144775Y161825D01*
X148239Y160390D01*
X150890Y157739D01*
X151433Y156427D01*
X151495Y156327D01*
X151555Y156227D01*
X151560Y156223D01*
X151563Y156218D01*
X151654Y156143D01*
X151742Y156067D01*
X151748Y156065D01*
X151752Y156061D01*
X151861Y156019D01*
X151970Y155975D01*
X151977Y155974D01*
X151982Y155973D01*
X152000Y155972D01*
X152137Y155957D01*
X191911Y155957D01*
X192002Y155971D01*
X192092Y155979D01*
X192122Y155991D01*
X192154Y155996D01*
X192235Y156039D01*
X192319Y156075D01*
X192351Y156101D01*
X192372Y156112D01*
X192394Y156135D01*
X192450Y156180D01*
X236028Y199758D01*
X236096Y199853D01*
X236166Y199946D01*
X236168Y199952D01*
X236171Y199957D01*
X236206Y200069D01*
X236242Y200180D01*
X236242Y200187D01*
X236244Y200193D01*
X236241Y200309D01*
X236239Y200426D01*
X236237Y200433D01*
X236237Y200438D01*
X236231Y200456D01*
X236193Y200587D01*
X235825Y201474D01*
X235825Y204926D01*
X237146Y208114D01*
X239586Y210554D01*
X242774Y211875D01*
X246226Y211875D01*
X249414Y210554D01*
X251854Y208114D01*
X253175Y204926D01*
X253175Y201474D01*
X251854Y198286D01*
X249414Y195846D01*
X246226Y194525D01*
X242774Y194525D01*
X241887Y194893D01*
X241774Y194919D01*
X241660Y194948D01*
X241654Y194947D01*
X241648Y194949D01*
X241531Y194938D01*
X241415Y194929D01*
X241409Y194926D01*
X241403Y194926D01*
X241295Y194878D01*
X241189Y194833D01*
X241183Y194828D01*
X241178Y194826D01*
X241164Y194813D01*
X241058Y194728D01*
X197480Y151150D01*
X195173Y148843D01*
X152137Y148843D01*
X152022Y148824D01*
X151906Y148807D01*
X151900Y148805D01*
X151894Y148804D01*
X151791Y148749D01*
X151686Y148696D01*
X151682Y148691D01*
X151677Y148688D01*
X151597Y148604D01*
X151514Y148520D01*
X151511Y148514D01*
X151507Y148510D01*
X151499Y148493D01*
X151433Y148373D01*
X150890Y147061D01*
X148239Y144410D01*
X144775Y142975D01*
X141025Y142975D01*
G37*
%LPD*%
%LPC*%
G36*
X48801Y218550D02*
X48801Y218550D01*
X45107Y220080D01*
X42280Y222907D01*
X40750Y226601D01*
X40750Y230599D01*
X42280Y234293D01*
X45107Y237120D01*
X48801Y238650D01*
X52799Y238650D01*
X56493Y237120D01*
X59320Y234293D01*
X60010Y232627D01*
X60072Y232527D01*
X60132Y232427D01*
X60137Y232423D01*
X60140Y232418D01*
X60231Y232343D01*
X60319Y232267D01*
X60325Y232265D01*
X60329Y232261D01*
X60438Y232219D01*
X60547Y232175D01*
X60555Y232174D01*
X60559Y232173D01*
X60577Y232172D01*
X60714Y232157D01*
X115711Y232157D01*
X115802Y232171D01*
X115892Y232179D01*
X115922Y232191D01*
X115954Y232196D01*
X116035Y232239D01*
X116119Y232275D01*
X116151Y232301D01*
X116172Y232312D01*
X116194Y232335D01*
X116250Y232380D01*
X133854Y249984D01*
X133921Y250078D01*
X133992Y250172D01*
X133994Y250178D01*
X133997Y250183D01*
X134031Y250294D01*
X134068Y250406D01*
X134068Y250413D01*
X134070Y250418D01*
X134067Y250535D01*
X134065Y250652D01*
X134063Y250659D01*
X134063Y250664D01*
X134057Y250682D01*
X134019Y250813D01*
X133475Y252125D01*
X133475Y255875D01*
X134910Y259339D01*
X137561Y261990D01*
X141025Y263425D01*
X144775Y263425D01*
X148239Y261990D01*
X150890Y259339D01*
X152325Y255875D01*
X152325Y252125D01*
X150890Y248661D01*
X148239Y246010D01*
X144775Y244575D01*
X141025Y244575D01*
X139713Y245119D01*
X139600Y245145D01*
X139486Y245174D01*
X139480Y245173D01*
X139474Y245175D01*
X139357Y245164D01*
X139241Y245155D01*
X139235Y245152D01*
X139229Y245152D01*
X139121Y245104D01*
X139015Y245059D01*
X139009Y245054D01*
X139004Y245052D01*
X138990Y245039D01*
X138884Y244954D01*
X118973Y225043D01*
X60714Y225043D01*
X60599Y225024D01*
X60483Y225007D01*
X60477Y225005D01*
X60471Y225004D01*
X60368Y224949D01*
X60264Y224896D01*
X60259Y224891D01*
X60254Y224888D01*
X60174Y224804D01*
X60091Y224720D01*
X60088Y224714D01*
X60084Y224710D01*
X60076Y224693D01*
X60010Y224573D01*
X59320Y222907D01*
X56493Y220080D01*
X52799Y218550D01*
X48801Y218550D01*
G37*
%LPD*%
%LPC*%
G36*
X293425Y66775D02*
X293425Y66775D01*
X289961Y68210D01*
X287310Y70861D01*
X285875Y74325D01*
X285875Y78075D01*
X287310Y81539D01*
X289961Y84190D01*
X293425Y85625D01*
X297175Y85625D01*
X300639Y84190D01*
X303290Y81539D01*
X303387Y81305D01*
X303411Y81266D01*
X303427Y81223D01*
X303475Y81162D01*
X303516Y81096D01*
X303552Y81067D01*
X303580Y81031D01*
X303646Y80989D01*
X303706Y80939D01*
X303748Y80923D01*
X303787Y80898D01*
X303863Y80879D01*
X303935Y80851D01*
X303981Y80849D01*
X304026Y80838D01*
X304103Y80844D01*
X304181Y80841D01*
X304225Y80853D01*
X304271Y80857D01*
X304342Y80887D01*
X304417Y80909D01*
X304455Y80935D01*
X304497Y80953D01*
X304604Y81039D01*
X304619Y81049D01*
X304622Y81053D01*
X304628Y81058D01*
X334596Y111026D01*
X334664Y111121D01*
X334734Y111215D01*
X334736Y111221D01*
X334740Y111226D01*
X334773Y111336D01*
X334810Y111449D01*
X334810Y111455D01*
X334812Y111461D01*
X334809Y111578D01*
X334808Y111695D01*
X334806Y111702D01*
X334806Y111707D01*
X334799Y111724D01*
X334761Y111856D01*
X334445Y112618D01*
X334445Y115982D01*
X335732Y119089D01*
X338111Y121468D01*
X341218Y122755D01*
X344582Y122755D01*
X347689Y121468D01*
X350068Y119089D01*
X351355Y115982D01*
X351355Y112618D01*
X350068Y109511D01*
X347689Y107132D01*
X344582Y105845D01*
X341218Y105845D01*
X340456Y106161D01*
X340342Y106188D01*
X340229Y106216D01*
X340222Y106216D01*
X340216Y106217D01*
X340100Y106206D01*
X339983Y106197D01*
X339978Y106195D01*
X339971Y106194D01*
X339864Y106146D01*
X339757Y106101D01*
X339751Y106096D01*
X339747Y106094D01*
X339733Y106082D01*
X339626Y105996D01*
X306273Y72643D01*
X304537Y72643D01*
X304422Y72624D01*
X304306Y72607D01*
X304300Y72605D01*
X304294Y72604D01*
X304191Y72549D01*
X304086Y72496D01*
X304082Y72491D01*
X304077Y72488D01*
X303997Y72404D01*
X303914Y72320D01*
X303911Y72314D01*
X303907Y72310D01*
X303899Y72293D01*
X303833Y72173D01*
X303290Y70861D01*
X300639Y68210D01*
X297175Y66775D01*
X293425Y66775D01*
G37*
%LPD*%
%LPC*%
G36*
X414174Y92925D02*
X414174Y92925D01*
X410986Y94246D01*
X408546Y96686D01*
X408178Y97573D01*
X408117Y97673D01*
X408057Y97773D01*
X408052Y97777D01*
X408049Y97782D01*
X407959Y97857D01*
X407870Y97933D01*
X407864Y97935D01*
X407859Y97939D01*
X407751Y97981D01*
X407642Y98025D01*
X407634Y98026D01*
X407630Y98027D01*
X407611Y98028D01*
X407475Y98043D01*
X404927Y98043D01*
X396974Y105996D01*
X396880Y106064D01*
X396785Y106134D01*
X396779Y106136D01*
X396774Y106140D01*
X396663Y106174D01*
X396551Y106210D01*
X396545Y106210D01*
X396539Y106212D01*
X396422Y106209D01*
X396305Y106208D01*
X396298Y106206D01*
X396293Y106206D01*
X396276Y106199D01*
X396144Y106161D01*
X395382Y105845D01*
X392018Y105845D01*
X388911Y107132D01*
X386532Y109511D01*
X385245Y112618D01*
X385245Y115982D01*
X386532Y119089D01*
X388911Y121468D01*
X392018Y122755D01*
X395382Y122755D01*
X398489Y121468D01*
X400868Y119089D01*
X402155Y115982D01*
X402155Y112618D01*
X401839Y111856D01*
X401812Y111742D01*
X401784Y111629D01*
X401784Y111622D01*
X401783Y111616D01*
X401794Y111499D01*
X401803Y111383D01*
X401805Y111378D01*
X401806Y111371D01*
X401854Y111264D01*
X401899Y111157D01*
X401904Y111151D01*
X401906Y111147D01*
X401918Y111133D01*
X402004Y111026D01*
X407146Y105884D01*
X407183Y105857D01*
X407214Y105824D01*
X407282Y105786D01*
X407346Y105741D01*
X407389Y105727D01*
X407430Y105705D01*
X407506Y105691D01*
X407581Y105668D01*
X407626Y105669D01*
X407672Y105661D01*
X407749Y105673D01*
X407827Y105675D01*
X407870Y105690D01*
X407915Y105697D01*
X407984Y105732D01*
X408058Y105759D01*
X408093Y105788D01*
X408134Y105809D01*
X408189Y105864D01*
X408250Y105913D01*
X408274Y105951D01*
X408307Y105984D01*
X408372Y106104D01*
X408383Y106120D01*
X408384Y106125D01*
X408387Y106131D01*
X408546Y106514D01*
X410986Y108954D01*
X414174Y110275D01*
X417626Y110275D01*
X420814Y108954D01*
X423254Y106514D01*
X424575Y103326D01*
X424575Y99874D01*
X423254Y96686D01*
X420814Y94246D01*
X417626Y92925D01*
X414174Y92925D01*
G37*
%LPD*%
%LPC*%
G36*
X48801Y167750D02*
X48801Y167750D01*
X45107Y169280D01*
X42280Y172107D01*
X40750Y175801D01*
X40750Y179799D01*
X42280Y183493D01*
X45107Y186320D01*
X48801Y187850D01*
X52799Y187850D01*
X56493Y186320D01*
X59320Y183493D01*
X60850Y179799D01*
X60850Y175801D01*
X59320Y172107D01*
X56493Y169280D01*
X52799Y167750D01*
X48801Y167750D01*
G37*
%LPD*%
%LPC*%
G36*
X48801Y193150D02*
X48801Y193150D01*
X45107Y194680D01*
X42280Y197507D01*
X40750Y201201D01*
X40750Y205199D01*
X42280Y208893D01*
X45107Y211720D01*
X48801Y213250D01*
X52799Y213250D01*
X56493Y211720D01*
X59320Y208893D01*
X60850Y205199D01*
X60850Y201201D01*
X59320Y197507D01*
X56493Y194680D01*
X52799Y193150D01*
X48801Y193150D01*
G37*
%LPD*%
%LPC*%
G36*
X48801Y243950D02*
X48801Y243950D01*
X45107Y245480D01*
X42280Y248307D01*
X40750Y252001D01*
X40750Y255999D01*
X42280Y259693D01*
X45107Y262520D01*
X48801Y264050D01*
X52799Y264050D01*
X56493Y262520D01*
X59320Y259693D01*
X60850Y255999D01*
X60850Y252001D01*
X59320Y248307D01*
X56493Y245480D01*
X52799Y243950D01*
X48801Y243950D01*
G37*
%LPD*%
%LPC*%
G36*
X261625Y244575D02*
X261625Y244575D01*
X258161Y246010D01*
X255510Y248661D01*
X254075Y252125D01*
X254075Y255875D01*
X255510Y259339D01*
X258161Y261990D01*
X261625Y263425D01*
X265375Y263425D01*
X268839Y261990D01*
X271490Y259339D01*
X272925Y255875D01*
X272925Y252125D01*
X271490Y248661D01*
X268839Y246010D01*
X265375Y244575D01*
X261625Y244575D01*
G37*
%LPD*%
%LPC*%
G36*
X141025Y41375D02*
X141025Y41375D01*
X137561Y42810D01*
X134910Y45461D01*
X133475Y48925D01*
X133475Y52675D01*
X134910Y56139D01*
X137561Y58790D01*
X141025Y60225D01*
X144775Y60225D01*
X148239Y58790D01*
X150890Y56139D01*
X152325Y52675D01*
X152325Y48925D01*
X150890Y45461D01*
X148239Y42810D01*
X144775Y41375D01*
X141025Y41375D01*
G37*
%LPD*%
%LPC*%
G36*
X261625Y396975D02*
X261625Y396975D01*
X258161Y398410D01*
X255510Y401061D01*
X254075Y404525D01*
X254075Y408275D01*
X255510Y411739D01*
X258161Y414390D01*
X261625Y415825D01*
X265375Y415825D01*
X268839Y414390D01*
X271490Y411739D01*
X272925Y408275D01*
X272925Y404525D01*
X271490Y401061D01*
X268839Y398410D01*
X265375Y396975D01*
X261625Y396975D01*
G37*
%LPD*%
%LPC*%
G36*
X414025Y66775D02*
X414025Y66775D01*
X410561Y68210D01*
X407910Y70861D01*
X406475Y74325D01*
X406475Y78075D01*
X407910Y81539D01*
X410561Y84190D01*
X414025Y85625D01*
X417775Y85625D01*
X421239Y84190D01*
X423890Y81539D01*
X425325Y78075D01*
X425325Y74325D01*
X423890Y70861D01*
X421239Y68210D01*
X417775Y66775D01*
X414025Y66775D01*
G37*
%LPD*%
%LPC*%
G36*
X141025Y92175D02*
X141025Y92175D01*
X137561Y93610D01*
X134910Y96261D01*
X133475Y99725D01*
X133475Y103475D01*
X134910Y106939D01*
X137561Y109590D01*
X141025Y111025D01*
X144775Y111025D01*
X148239Y109590D01*
X150890Y106939D01*
X152325Y103475D01*
X152325Y99725D01*
X150890Y96261D01*
X148239Y93610D01*
X144775Y92175D01*
X141025Y92175D01*
G37*
%LPD*%
%LPC*%
G36*
X261625Y92175D02*
X261625Y92175D01*
X258161Y93610D01*
X255510Y96261D01*
X254075Y99725D01*
X254075Y103475D01*
X255510Y106939D01*
X258161Y109590D01*
X261625Y111025D01*
X265375Y111025D01*
X268839Y109590D01*
X271490Y106939D01*
X272925Y103475D01*
X272925Y99725D01*
X271490Y96261D01*
X268839Y93610D01*
X265375Y92175D01*
X261625Y92175D01*
G37*
%LPD*%
%LPC*%
G36*
X261625Y142975D02*
X261625Y142975D01*
X258161Y144410D01*
X255510Y147061D01*
X254075Y150525D01*
X254075Y154275D01*
X255510Y157739D01*
X258161Y160390D01*
X261625Y161825D01*
X265375Y161825D01*
X268839Y160390D01*
X271490Y157739D01*
X272925Y154275D01*
X272925Y150525D01*
X271490Y147061D01*
X268839Y144410D01*
X265375Y142975D01*
X261625Y142975D01*
G37*
%LPD*%
%LPC*%
G36*
X261625Y295375D02*
X261625Y295375D01*
X258161Y296810D01*
X255510Y299461D01*
X254075Y302925D01*
X254075Y306675D01*
X255510Y310139D01*
X258161Y312790D01*
X261625Y314225D01*
X265375Y314225D01*
X268839Y312790D01*
X271490Y310139D01*
X272925Y306675D01*
X272925Y302925D01*
X271490Y299461D01*
X268839Y296810D01*
X265375Y295375D01*
X261625Y295375D01*
G37*
%LPD*%
%LPC*%
G36*
X293425Y219175D02*
X293425Y219175D01*
X289961Y220610D01*
X287310Y223261D01*
X285875Y226725D01*
X285875Y230475D01*
X287310Y233939D01*
X289961Y236590D01*
X293425Y238025D01*
X297175Y238025D01*
X300639Y236590D01*
X303290Y233939D01*
X304725Y230475D01*
X304725Y226725D01*
X303290Y223261D01*
X300639Y220610D01*
X297175Y219175D01*
X293425Y219175D01*
G37*
%LPD*%
%LPC*%
G36*
X160174Y194525D02*
X160174Y194525D01*
X156986Y195846D01*
X154546Y198286D01*
X153225Y201474D01*
X153225Y204926D01*
X154546Y208114D01*
X156986Y210554D01*
X160174Y211875D01*
X163626Y211875D01*
X166814Y210554D01*
X169254Y208114D01*
X170575Y204926D01*
X170575Y201474D01*
X169254Y198286D01*
X166814Y195846D01*
X163626Y194525D01*
X160174Y194525D01*
G37*
%LPD*%
%LPC*%
G36*
X366618Y182045D02*
X366618Y182045D01*
X363511Y183332D01*
X361132Y185711D01*
X359845Y188818D01*
X359845Y192182D01*
X361132Y195289D01*
X363511Y197668D01*
X366618Y198955D01*
X369982Y198955D01*
X373089Y197668D01*
X375468Y195289D01*
X376755Y192182D01*
X376755Y188818D01*
X375468Y185711D01*
X373089Y183332D01*
X369982Y182045D01*
X366618Y182045D01*
G37*
%LPD*%
%LPC*%
G36*
X26923Y433323D02*
X26923Y433323D01*
X26923Y442763D01*
X27991Y442594D01*
X29648Y442055D01*
X31200Y441265D01*
X32609Y440241D01*
X33841Y439009D01*
X34865Y437600D01*
X35655Y436048D01*
X36194Y434391D01*
X36363Y433323D01*
X26923Y433323D01*
G37*
%LPD*%
%LPC*%
G36*
X509523Y433323D02*
X509523Y433323D01*
X509523Y442763D01*
X510591Y442594D01*
X512248Y442055D01*
X513800Y441265D01*
X515209Y440241D01*
X516441Y439009D01*
X517465Y437600D01*
X518255Y436048D01*
X518794Y434391D01*
X518963Y433323D01*
X509523Y433323D01*
G37*
%LPD*%
%LPC*%
G36*
X484123Y433323D02*
X484123Y433323D01*
X484123Y442763D01*
X485191Y442594D01*
X486848Y442055D01*
X488400Y441265D01*
X489809Y440241D01*
X491041Y439009D01*
X492065Y437600D01*
X492855Y436048D01*
X493394Y434391D01*
X493563Y433323D01*
X484123Y433323D01*
G37*
%LPD*%
%LPC*%
G36*
X52323Y433323D02*
X52323Y433323D01*
X52323Y442763D01*
X53391Y442594D01*
X55048Y442055D01*
X56600Y441265D01*
X58009Y440241D01*
X59241Y439009D01*
X60265Y437600D01*
X61055Y436048D01*
X61594Y434391D01*
X61763Y433323D01*
X52323Y433323D01*
G37*
%LPD*%
%LPC*%
G36*
X26923Y26923D02*
X26923Y26923D01*
X26923Y36363D01*
X27991Y36194D01*
X29648Y35655D01*
X31200Y34865D01*
X32609Y33841D01*
X33841Y32609D01*
X34865Y31200D01*
X35655Y29648D01*
X36194Y27991D01*
X36363Y26923D01*
X26923Y26923D01*
G37*
%LPD*%
%LPC*%
G36*
X52323Y26923D02*
X52323Y26923D01*
X52323Y36363D01*
X53391Y36194D01*
X55048Y35655D01*
X56600Y34865D01*
X58009Y33841D01*
X59241Y32609D01*
X60265Y31200D01*
X61055Y29648D01*
X61594Y27991D01*
X61763Y26923D01*
X52323Y26923D01*
G37*
%LPD*%
%LPC*%
G36*
X509523Y26923D02*
X509523Y26923D01*
X509523Y36363D01*
X510591Y36194D01*
X512248Y35655D01*
X513800Y34865D01*
X515209Y33841D01*
X516441Y32609D01*
X517465Y31200D01*
X518255Y29648D01*
X518794Y27991D01*
X518963Y26923D01*
X509523Y26923D01*
G37*
%LPD*%
%LPC*%
G36*
X484123Y204723D02*
X484123Y204723D01*
X484123Y214163D01*
X485191Y213994D01*
X486848Y213455D01*
X488400Y212665D01*
X489809Y211641D01*
X491041Y210409D01*
X492065Y209000D01*
X492855Y207448D01*
X493394Y205791D01*
X493563Y204723D01*
X484123Y204723D01*
G37*
%LPD*%
%LPC*%
G36*
X52323Y306323D02*
X52323Y306323D01*
X52323Y315763D01*
X53391Y315594D01*
X55048Y315055D01*
X56600Y314265D01*
X58009Y313241D01*
X59241Y312009D01*
X60265Y310600D01*
X61055Y309048D01*
X61594Y307391D01*
X61763Y306323D01*
X52323Y306323D01*
G37*
%LPD*%
%LPC*%
G36*
X52323Y153923D02*
X52323Y153923D01*
X52323Y163363D01*
X53391Y163194D01*
X55048Y162655D01*
X56600Y161865D01*
X58009Y160841D01*
X59241Y159609D01*
X60265Y158200D01*
X61055Y156648D01*
X61594Y154991D01*
X61763Y153923D01*
X52323Y153923D01*
G37*
%LPD*%
%LPC*%
G36*
X484123Y26923D02*
X484123Y26923D01*
X484123Y36363D01*
X485191Y36194D01*
X486848Y35655D01*
X488400Y34865D01*
X489809Y33841D01*
X491041Y32609D01*
X492065Y31200D01*
X492855Y29648D01*
X493394Y27991D01*
X493563Y26923D01*
X484123Y26923D01*
G37*
%LPD*%
%LPC*%
G36*
X14437Y433323D02*
X14437Y433323D01*
X14606Y434391D01*
X15145Y436048D01*
X15935Y437600D01*
X16959Y439009D01*
X18191Y440241D01*
X19600Y441265D01*
X21152Y442055D01*
X22809Y442594D01*
X23877Y442763D01*
X23877Y433323D01*
X14437Y433323D01*
G37*
%LPD*%
%LPC*%
G36*
X39837Y433323D02*
X39837Y433323D01*
X40006Y434391D01*
X40545Y436048D01*
X41335Y437600D01*
X42359Y439009D01*
X43591Y440241D01*
X45000Y441265D01*
X46552Y442055D01*
X48209Y442594D01*
X49277Y442763D01*
X49277Y433323D01*
X39837Y433323D01*
G37*
%LPD*%
%LPC*%
G36*
X471637Y433323D02*
X471637Y433323D01*
X471806Y434391D01*
X472345Y436048D01*
X473135Y437600D01*
X474159Y439009D01*
X475391Y440241D01*
X476800Y441265D01*
X478352Y442055D01*
X480009Y442594D01*
X481077Y442763D01*
X481077Y433323D01*
X471637Y433323D01*
G37*
%LPD*%
%LPC*%
G36*
X497037Y433323D02*
X497037Y433323D01*
X497206Y434391D01*
X497745Y436048D01*
X498535Y437600D01*
X499559Y439009D01*
X500791Y440241D01*
X502200Y441265D01*
X503752Y442055D01*
X505409Y442594D01*
X506477Y442763D01*
X506477Y433323D01*
X497037Y433323D01*
G37*
%LPD*%
%LPC*%
G36*
X484123Y23877D02*
X484123Y23877D01*
X493563Y23877D01*
X493394Y22809D01*
X492855Y21152D01*
X492065Y19600D01*
X491041Y18191D01*
X489809Y16959D01*
X488400Y15935D01*
X486848Y15145D01*
X485191Y14606D01*
X484123Y14437D01*
X484123Y23877D01*
G37*
%LPD*%
%LPC*%
G36*
X52323Y23877D02*
X52323Y23877D01*
X61763Y23877D01*
X61594Y22809D01*
X61055Y21152D01*
X60265Y19600D01*
X59241Y18191D01*
X58009Y16959D01*
X56600Y15935D01*
X55048Y15145D01*
X53391Y14606D01*
X52323Y14437D01*
X52323Y23877D01*
G37*
%LPD*%
%LPC*%
G36*
X509523Y430277D02*
X509523Y430277D01*
X518963Y430277D01*
X518794Y429209D01*
X518255Y427552D01*
X517465Y426000D01*
X516441Y424591D01*
X515209Y423359D01*
X513800Y422335D01*
X512248Y421545D01*
X510591Y421006D01*
X509523Y420837D01*
X509523Y430277D01*
G37*
%LPD*%
%LPC*%
G36*
X484123Y430277D02*
X484123Y430277D01*
X493563Y430277D01*
X493394Y429209D01*
X492855Y427552D01*
X492065Y426000D01*
X491041Y424591D01*
X489809Y423359D01*
X488400Y422335D01*
X486848Y421545D01*
X485191Y421006D01*
X484123Y420837D01*
X484123Y430277D01*
G37*
%LPD*%
%LPC*%
G36*
X52323Y430277D02*
X52323Y430277D01*
X61763Y430277D01*
X61594Y429209D01*
X61055Y427552D01*
X60265Y426000D01*
X59241Y424591D01*
X58009Y423359D01*
X56600Y422335D01*
X55048Y421545D01*
X53391Y421006D01*
X52323Y420837D01*
X52323Y430277D01*
G37*
%LPD*%
%LPC*%
G36*
X26923Y430277D02*
X26923Y430277D01*
X36363Y430277D01*
X36194Y429209D01*
X35655Y427552D01*
X34865Y426000D01*
X33841Y424591D01*
X32609Y423359D01*
X31200Y422335D01*
X29648Y421545D01*
X27991Y421006D01*
X26923Y420837D01*
X26923Y430277D01*
G37*
%LPD*%
%LPC*%
G36*
X39837Y306323D02*
X39837Y306323D01*
X40006Y307391D01*
X40545Y309048D01*
X41335Y310600D01*
X42359Y312009D01*
X43591Y313241D01*
X45000Y314265D01*
X46552Y315055D01*
X48209Y315594D01*
X49277Y315763D01*
X49277Y306323D01*
X39837Y306323D01*
G37*
%LPD*%
%LPC*%
G36*
X52323Y303277D02*
X52323Y303277D01*
X61763Y303277D01*
X61594Y302209D01*
X61055Y300552D01*
X60265Y299000D01*
X59241Y297591D01*
X58009Y296359D01*
X56600Y295335D01*
X55048Y294545D01*
X53391Y294006D01*
X52323Y293837D01*
X52323Y303277D01*
G37*
%LPD*%
%LPC*%
G36*
X471637Y204723D02*
X471637Y204723D01*
X471806Y205791D01*
X472345Y207448D01*
X473135Y209000D01*
X474159Y210409D01*
X475391Y211641D01*
X476800Y212665D01*
X478352Y213455D01*
X480009Y213994D01*
X481077Y214163D01*
X481077Y204723D01*
X471637Y204723D01*
G37*
%LPD*%
%LPC*%
G36*
X26923Y23877D02*
X26923Y23877D01*
X36363Y23877D01*
X36194Y22809D01*
X35655Y21152D01*
X34865Y19600D01*
X33841Y18191D01*
X32609Y16959D01*
X31200Y15935D01*
X29648Y15145D01*
X27991Y14606D01*
X26923Y14437D01*
X26923Y23877D01*
G37*
%LPD*%
%LPC*%
G36*
X484123Y201677D02*
X484123Y201677D01*
X493563Y201677D01*
X493394Y200609D01*
X492855Y198952D01*
X492065Y197400D01*
X491041Y195991D01*
X489809Y194759D01*
X488400Y193735D01*
X486848Y192945D01*
X485191Y192406D01*
X484123Y192237D01*
X484123Y201677D01*
G37*
%LPD*%
%LPC*%
G36*
X39837Y153923D02*
X39837Y153923D01*
X40006Y154991D01*
X40545Y156648D01*
X41335Y158200D01*
X42359Y159609D01*
X43591Y160841D01*
X45000Y161865D01*
X46552Y162655D01*
X48209Y163194D01*
X49277Y163363D01*
X49277Y153923D01*
X39837Y153923D01*
G37*
%LPD*%
%LPC*%
G36*
X52323Y150877D02*
X52323Y150877D01*
X61763Y150877D01*
X61594Y149809D01*
X61055Y148152D01*
X60265Y146600D01*
X59241Y145191D01*
X58009Y143959D01*
X56600Y142935D01*
X55048Y142145D01*
X53391Y141606D01*
X52323Y141437D01*
X52323Y150877D01*
G37*
%LPD*%
%LPC*%
G36*
X497037Y26923D02*
X497037Y26923D01*
X497206Y27991D01*
X497745Y29648D01*
X498535Y31200D01*
X499559Y32609D01*
X500791Y33841D01*
X502200Y34865D01*
X503752Y35655D01*
X505409Y36194D01*
X506477Y36363D01*
X506477Y26923D01*
X497037Y26923D01*
G37*
%LPD*%
%LPC*%
G36*
X14437Y26923D02*
X14437Y26923D01*
X14606Y27991D01*
X15145Y29648D01*
X15935Y31200D01*
X16959Y32609D01*
X18191Y33841D01*
X19600Y34865D01*
X21152Y35655D01*
X22809Y36194D01*
X23877Y36363D01*
X23877Y26923D01*
X14437Y26923D01*
G37*
%LPD*%
%LPC*%
G36*
X39837Y26923D02*
X39837Y26923D01*
X40006Y27991D01*
X40545Y29648D01*
X41335Y31200D01*
X42359Y32609D01*
X43591Y33841D01*
X45000Y34865D01*
X46552Y35655D01*
X48209Y36194D01*
X49277Y36363D01*
X49277Y26923D01*
X39837Y26923D01*
G37*
%LPD*%
%LPC*%
G36*
X471637Y26923D02*
X471637Y26923D01*
X471806Y27991D01*
X472345Y29648D01*
X473135Y31200D01*
X474159Y32609D01*
X475391Y33841D01*
X476800Y34865D01*
X478352Y35655D01*
X480009Y36194D01*
X481077Y36363D01*
X481077Y26923D01*
X471637Y26923D01*
G37*
%LPD*%
%LPC*%
G36*
X509523Y23877D02*
X509523Y23877D01*
X518963Y23877D01*
X518794Y22809D01*
X518255Y21152D01*
X517465Y19600D01*
X516441Y18191D01*
X515209Y16959D01*
X513800Y15935D01*
X512248Y15145D01*
X510591Y14606D01*
X509523Y14437D01*
X509523Y23877D01*
G37*
%LPD*%
%LPC*%
G36*
X48209Y141606D02*
X48209Y141606D01*
X46552Y142145D01*
X45000Y142935D01*
X43591Y143959D01*
X42359Y145191D01*
X41335Y146600D01*
X40545Y148152D01*
X40006Y149809D01*
X39837Y150877D01*
X49277Y150877D01*
X49277Y141437D01*
X48209Y141606D01*
G37*
%LPD*%
%LPC*%
G36*
X48209Y294006D02*
X48209Y294006D01*
X46552Y294545D01*
X45000Y295335D01*
X43591Y296359D01*
X42359Y297591D01*
X41335Y299000D01*
X40545Y300552D01*
X40006Y302209D01*
X39837Y303277D01*
X49277Y303277D01*
X49277Y293837D01*
X48209Y294006D01*
G37*
%LPD*%
%LPC*%
G36*
X480009Y192406D02*
X480009Y192406D01*
X478352Y192945D01*
X476800Y193735D01*
X475391Y194759D01*
X474159Y195991D01*
X473135Y197400D01*
X472345Y198952D01*
X471806Y200609D01*
X471637Y201677D01*
X481077Y201677D01*
X481077Y192237D01*
X480009Y192406D01*
G37*
%LPD*%
%LPC*%
G36*
X22809Y421006D02*
X22809Y421006D01*
X21152Y421545D01*
X19600Y422335D01*
X18191Y423359D01*
X16959Y424591D01*
X15935Y426000D01*
X15145Y427552D01*
X14606Y429209D01*
X14437Y430277D01*
X23877Y430277D01*
X23877Y420837D01*
X22809Y421006D01*
G37*
%LPD*%
%LPC*%
G36*
X48209Y421006D02*
X48209Y421006D01*
X46552Y421545D01*
X45000Y422335D01*
X43591Y423359D01*
X42359Y424591D01*
X41335Y426000D01*
X40545Y427552D01*
X40006Y429209D01*
X39837Y430277D01*
X49277Y430277D01*
X49277Y420837D01*
X48209Y421006D01*
G37*
%LPD*%
%LPC*%
G36*
X480009Y421006D02*
X480009Y421006D01*
X478352Y421545D01*
X476800Y422335D01*
X475391Y423359D01*
X474159Y424591D01*
X473135Y426000D01*
X472345Y427552D01*
X471806Y429209D01*
X471637Y430277D01*
X481077Y430277D01*
X481077Y420837D01*
X480009Y421006D01*
G37*
%LPD*%
%LPC*%
G36*
X505409Y421006D02*
X505409Y421006D01*
X503752Y421545D01*
X502200Y422335D01*
X500791Y423359D01*
X499559Y424591D01*
X498535Y426000D01*
X497745Y427552D01*
X497206Y429209D01*
X497037Y430277D01*
X506477Y430277D01*
X506477Y420837D01*
X505409Y421006D01*
G37*
%LPD*%
%LPC*%
G36*
X505409Y14606D02*
X505409Y14606D01*
X503752Y15145D01*
X502200Y15935D01*
X500791Y16959D01*
X499559Y18191D01*
X498535Y19600D01*
X497745Y21152D01*
X497206Y22809D01*
X497037Y23877D01*
X506477Y23877D01*
X506477Y14437D01*
X505409Y14606D01*
G37*
%LPD*%
%LPC*%
G36*
X22809Y14606D02*
X22809Y14606D01*
X21152Y15145D01*
X19600Y15935D01*
X18191Y16959D01*
X16959Y18191D01*
X15935Y19600D01*
X15145Y21152D01*
X14606Y22809D01*
X14437Y23877D01*
X23877Y23877D01*
X23877Y14437D01*
X22809Y14606D01*
G37*
%LPD*%
%LPC*%
G36*
X480009Y14606D02*
X480009Y14606D01*
X478352Y15145D01*
X476800Y15935D01*
X475391Y16959D01*
X474159Y18191D01*
X473135Y19600D01*
X472345Y21152D01*
X471806Y22809D01*
X471637Y23877D01*
X481077Y23877D01*
X481077Y14437D01*
X480009Y14606D01*
G37*
%LPD*%
%LPC*%
G36*
X48209Y14606D02*
X48209Y14606D01*
X46552Y15145D01*
X45000Y15935D01*
X43591Y16959D01*
X42359Y18191D01*
X41335Y19600D01*
X40545Y21152D01*
X40006Y22809D01*
X39837Y23877D01*
X49277Y23877D01*
X49277Y14437D01*
X48209Y14606D01*
G37*
%LPD*%
%LPC*%
G36*
X417423Y280923D02*
X417423Y280923D01*
X417423Y289730D01*
X418345Y289584D01*
X419908Y289076D01*
X421372Y288330D01*
X422702Y287364D01*
X423864Y286202D01*
X424830Y284872D01*
X425576Y283408D01*
X426084Y281845D01*
X426230Y280923D01*
X417423Y280923D01*
G37*
%LPD*%
%LPC*%
G36*
X417423Y277877D02*
X417423Y277877D01*
X426230Y277877D01*
X426084Y276955D01*
X425576Y275392D01*
X424830Y273928D01*
X423864Y272598D01*
X422702Y271436D01*
X421372Y270470D01*
X419908Y269724D01*
X418345Y269216D01*
X417423Y269070D01*
X417423Y277877D01*
G37*
%LPD*%
%LPC*%
G36*
X405570Y280923D02*
X405570Y280923D01*
X405716Y281845D01*
X406224Y283408D01*
X406970Y284872D01*
X407936Y286202D01*
X409098Y287364D01*
X410428Y288330D01*
X411892Y289076D01*
X413455Y289584D01*
X414377Y289730D01*
X414377Y280923D01*
X405570Y280923D01*
G37*
%LPD*%
%LPC*%
G36*
X413455Y269216D02*
X413455Y269216D01*
X411892Y269724D01*
X410428Y270470D01*
X409098Y271436D01*
X407936Y272598D01*
X406970Y273928D01*
X406224Y275392D01*
X405716Y276955D01*
X405570Y277877D01*
X414377Y277877D01*
X414377Y269070D01*
X413455Y269216D01*
G37*
%LPD*%
%LPC*%
G36*
X500023Y103123D02*
X500023Y103123D01*
X500023Y111170D01*
X500769Y111052D01*
X502220Y110581D01*
X503579Y109888D01*
X504813Y108992D01*
X505892Y107913D01*
X506788Y106679D01*
X507481Y105320D01*
X507952Y103869D01*
X508070Y103123D01*
X500023Y103123D01*
G37*
%LPD*%
%LPC*%
G36*
X398423Y331723D02*
X398423Y331723D01*
X398423Y339770D01*
X399169Y339652D01*
X400620Y339181D01*
X401979Y338488D01*
X403213Y337592D01*
X404292Y336513D01*
X405188Y335279D01*
X405881Y333920D01*
X406352Y332469D01*
X406470Y331723D01*
X398423Y331723D01*
G37*
%LPD*%
%LPC*%
G36*
X488930Y103123D02*
X488930Y103123D01*
X489048Y103869D01*
X489519Y105320D01*
X490212Y106679D01*
X491108Y107913D01*
X492187Y108992D01*
X493421Y109888D01*
X494780Y110581D01*
X496231Y111052D01*
X496977Y111170D01*
X496977Y103123D01*
X488930Y103123D01*
G37*
%LPD*%
%LPC*%
G36*
X387330Y331723D02*
X387330Y331723D01*
X387448Y332469D01*
X387919Y333920D01*
X388612Y335279D01*
X389508Y336513D01*
X390587Y337592D01*
X391821Y338488D01*
X393180Y339181D01*
X394631Y339652D01*
X395377Y339770D01*
X395377Y331723D01*
X387330Y331723D01*
G37*
%LPD*%
%LPC*%
G36*
X398423Y328677D02*
X398423Y328677D01*
X406470Y328677D01*
X406352Y327931D01*
X405881Y326480D01*
X405188Y325121D01*
X404292Y323887D01*
X403213Y322808D01*
X401979Y321912D01*
X400620Y321219D01*
X399169Y320748D01*
X398423Y320630D01*
X398423Y328677D01*
G37*
%LPD*%
%LPC*%
G36*
X500023Y100077D02*
X500023Y100077D01*
X508070Y100077D01*
X507952Y99331D01*
X507481Y97880D01*
X506788Y96521D01*
X505892Y95287D01*
X504813Y94208D01*
X503579Y93312D01*
X502220Y92619D01*
X500769Y92148D01*
X500023Y92030D01*
X500023Y100077D01*
G37*
%LPD*%
%LPC*%
G36*
X394631Y320748D02*
X394631Y320748D01*
X393180Y321219D01*
X391821Y321912D01*
X390587Y322808D01*
X389508Y323887D01*
X388612Y325121D01*
X387919Y326480D01*
X387448Y327931D01*
X387330Y328677D01*
X395377Y328677D01*
X395377Y320630D01*
X394631Y320748D01*
G37*
%LPD*%
%LPC*%
G36*
X496231Y92148D02*
X496231Y92148D01*
X494780Y92619D01*
X493421Y93312D01*
X492187Y94208D01*
X491108Y95287D01*
X490212Y96521D01*
X489519Y97880D01*
X489048Y99331D01*
X488930Y100077D01*
X496977Y100077D01*
X496977Y92030D01*
X496231Y92148D01*
G37*
%LPD*%
%LPC*%
G36*
X319023Y192023D02*
X319023Y192023D01*
X319023Y199853D01*
X320262Y199607D01*
X321986Y198893D01*
X323537Y197856D01*
X324856Y196537D01*
X325893Y194986D01*
X326607Y193262D01*
X326853Y192023D01*
X319023Y192023D01*
G37*
%LPD*%
%LPC*%
G36*
X319023Y188977D02*
X319023Y188977D01*
X326853Y188977D01*
X326607Y187738D01*
X325893Y186014D01*
X324856Y184463D01*
X323537Y183144D01*
X321986Y182107D01*
X320262Y181393D01*
X319023Y181147D01*
X319023Y188977D01*
G37*
%LPD*%
%LPC*%
G36*
X308147Y192023D02*
X308147Y192023D01*
X308393Y193262D01*
X309107Y194986D01*
X310144Y196537D01*
X311463Y197856D01*
X313014Y198893D01*
X314738Y199607D01*
X315977Y199853D01*
X315977Y192023D01*
X308147Y192023D01*
G37*
%LPD*%
%LPC*%
G36*
X314738Y181393D02*
X314738Y181393D01*
X313014Y182107D01*
X311463Y183144D01*
X310144Y184463D01*
X309107Y186014D01*
X308393Y187738D01*
X308147Y188977D01*
X315977Y188977D01*
X315977Y181147D01*
X314738Y181393D01*
G37*
%LPD*%
%LPC*%
G36*
X396899Y330199D02*
X396899Y330199D01*
X396899Y330201D01*
X396901Y330201D01*
X396901Y330199D01*
X396899Y330199D01*
G37*
%LPD*%
%LPC*%
G36*
X482599Y203199D02*
X482599Y203199D01*
X482599Y203201D01*
X482601Y203201D01*
X482601Y203199D01*
X482599Y203199D01*
G37*
%LPD*%
%LPC*%
G36*
X50799Y431799D02*
X50799Y431799D01*
X50799Y431801D01*
X50801Y431801D01*
X50801Y431799D01*
X50799Y431799D01*
G37*
%LPD*%
%LPC*%
G36*
X507999Y25399D02*
X507999Y25399D01*
X507999Y25401D01*
X508001Y25401D01*
X508001Y25399D01*
X507999Y25399D01*
G37*
%LPD*%
%LPC*%
G36*
X507999Y431799D02*
X507999Y431799D01*
X507999Y431801D01*
X508001Y431801D01*
X508001Y431799D01*
X507999Y431799D01*
G37*
%LPD*%
%LPC*%
G36*
X50799Y25399D02*
X50799Y25399D01*
X50799Y25401D01*
X50801Y25401D01*
X50801Y25399D01*
X50799Y25399D01*
G37*
%LPD*%
%LPC*%
G36*
X25399Y25399D02*
X25399Y25399D01*
X25399Y25401D01*
X25401Y25401D01*
X25401Y25399D01*
X25399Y25399D01*
G37*
%LPD*%
%LPC*%
G36*
X25399Y431799D02*
X25399Y431799D01*
X25399Y431801D01*
X25401Y431801D01*
X25401Y431799D01*
X25399Y431799D01*
G37*
%LPD*%
%LPC*%
G36*
X50799Y152399D02*
X50799Y152399D01*
X50799Y152401D01*
X50801Y152401D01*
X50801Y152399D01*
X50799Y152399D01*
G37*
%LPD*%
%LPC*%
G36*
X482599Y25399D02*
X482599Y25399D01*
X482599Y25401D01*
X482601Y25401D01*
X482601Y25399D01*
X482599Y25399D01*
G37*
%LPD*%
%LPC*%
G36*
X415899Y279399D02*
X415899Y279399D01*
X415899Y279401D01*
X415901Y279401D01*
X415901Y279399D01*
X415899Y279399D01*
G37*
%LPD*%
%LPC*%
G36*
X482599Y431799D02*
X482599Y431799D01*
X482599Y431801D01*
X482601Y431801D01*
X482601Y431799D01*
X482599Y431799D01*
G37*
%LPD*%
%LPC*%
G36*
X317499Y190499D02*
X317499Y190499D01*
X317499Y190501D01*
X317501Y190501D01*
X317501Y190499D01*
X317499Y190499D01*
G37*
%LPD*%
%LPC*%
G36*
X50799Y304799D02*
X50799Y304799D01*
X50799Y304801D01*
X50801Y304801D01*
X50801Y304799D01*
X50799Y304799D01*
G37*
%LPD*%
%LPC*%
G36*
X498499Y101599D02*
X498499Y101599D01*
X498499Y101601D01*
X498501Y101601D01*
X498501Y101599D01*
X498499Y101599D01*
G37*
%LPD*%
D10*
X161900Y355600D03*
X244500Y355600D03*
X161900Y203200D03*
X244500Y203200D03*
X396900Y330200D03*
X314300Y330200D03*
X498500Y101600D03*
X415900Y101600D03*
D11*
X50800Y279400D03*
X50800Y254000D03*
X50800Y228600D03*
X50800Y203200D03*
X50800Y177800D03*
X50800Y152400D03*
X482600Y254000D03*
X482600Y279400D03*
X482600Y203200D03*
X482600Y228600D03*
D12*
X142900Y304800D03*
X263500Y304800D03*
X142900Y254000D03*
X263500Y254000D03*
X415900Y228600D03*
X295300Y228600D03*
X415900Y76200D03*
X295300Y76200D03*
X263500Y101600D03*
X142900Y101600D03*
X263500Y152400D03*
X142900Y152400D03*
X263500Y406400D03*
X142900Y406400D03*
X415900Y279400D03*
X295300Y279400D03*
X263500Y50800D03*
X142900Y50800D03*
D13*
X393700Y190500D03*
X368300Y190500D03*
X342900Y190500D03*
X317500Y190500D03*
X317500Y114300D03*
X342900Y114300D03*
X368300Y114300D03*
X393700Y114300D03*
D11*
X50800Y330200D03*
X50800Y304800D03*
X25400Y25400D03*
X50800Y25400D03*
X25400Y431800D03*
X50800Y431800D03*
X482600Y431800D03*
X508000Y431800D03*
X482600Y25400D03*
X508000Y25400D03*
D14*
X127000Y406400D02*
X50800Y330200D01*
X127000Y406400D02*
X142900Y406400D01*
X406400Y101600D02*
X415900Y101600D01*
X406400Y101600D02*
X393700Y114300D01*
X342900Y139700D02*
X342900Y190500D01*
X342900Y139700D02*
X317500Y114300D01*
X295300Y311200D02*
X314300Y330200D01*
X295300Y311200D02*
X295300Y279400D01*
X342900Y231800D01*
X342900Y190500D01*
X117500Y228600D02*
X50800Y228600D01*
X117500Y228600D02*
X142900Y254000D01*
X50800Y279400D02*
X127000Y355600D01*
X161900Y355600D01*
X193700Y304800D02*
X244500Y355600D01*
X193700Y304800D02*
X142900Y304800D01*
X393700Y206400D02*
X393700Y190500D01*
X393700Y206400D02*
X415900Y228600D01*
X466700Y279400D01*
X482600Y279400D01*
X368300Y139700D02*
X368300Y114300D01*
X368300Y139700D02*
X482600Y254000D01*
X244500Y203200D02*
X193700Y152400D01*
X142900Y152400D01*
X304800Y76200D02*
X342900Y114300D01*
X304800Y76200D02*
X295300Y76200D01*
X457200Y203200D02*
X482600Y228600D01*
X457200Y203200D02*
X457200Y76200D01*
X431800Y50800D01*
X263500Y50800D01*
M02*
