G04 EAGLE Gerber RS-274X export*
G75*
%MOMM*%
%FSLAX34Y34*%
%LPD*%
%INBottom Copper*%
%IPPOS*%
%AMOC8*
5,1,8,0,0,1.08239X$1,22.5*%
G01*
%ADD10C,1.430000*%
%ADD11C,1.705100*%
%ADD12C,1.580000*%
%ADD13C,1.386000*%
%ADD14C,0.406400*%


D10*
X161900Y355600D03*
X244500Y355600D03*
X161900Y203200D03*
X244500Y203200D03*
X396900Y330200D03*
X314300Y330200D03*
X498500Y101600D03*
X415900Y101600D03*
D11*
X50800Y279400D03*
X50800Y254000D03*
X50800Y228600D03*
X50800Y203200D03*
X50800Y177800D03*
X50800Y152400D03*
X482600Y254000D03*
X482600Y279400D03*
X482600Y203200D03*
X482600Y228600D03*
D12*
X142900Y304800D03*
X263500Y304800D03*
X142900Y254000D03*
X263500Y254000D03*
X415900Y228600D03*
X295300Y228600D03*
X415900Y76200D03*
X295300Y76200D03*
X263500Y101600D03*
X142900Y101600D03*
X263500Y152400D03*
X142900Y152400D03*
X263500Y406400D03*
X142900Y406400D03*
X415900Y279400D03*
X295300Y279400D03*
X263500Y50800D03*
X142900Y50800D03*
D13*
X393700Y190500D03*
X368300Y190500D03*
X342900Y190500D03*
X317500Y190500D03*
X317500Y114300D03*
X342900Y114300D03*
X368300Y114300D03*
X393700Y114300D03*
D11*
X50800Y330200D03*
X50800Y304800D03*
X25400Y25400D03*
X50800Y25400D03*
X25400Y431800D03*
X50800Y431800D03*
X482600Y431800D03*
X508000Y431800D03*
X482600Y25400D03*
X508000Y25400D03*
D14*
X142900Y111100D02*
X50800Y203200D01*
X142900Y111100D02*
X142900Y101600D01*
X252044Y297256D02*
X142900Y406400D01*
X252044Y297256D02*
X252044Y249255D01*
X276049Y225249D01*
X279400Y221899D01*
X381000Y152400D02*
X415900Y117500D01*
X415900Y101600D01*
X279400Y221899D02*
X276049Y225249D01*
X279400Y221899D02*
X279400Y177800D01*
X304800Y152400D01*
X381000Y152400D01*
X314300Y355600D02*
X263500Y406400D01*
X314300Y355600D02*
X314300Y330200D01*
X263500Y304800D02*
X263500Y254000D01*
X288900Y228600D01*
X295300Y228600D01*
X330200Y228600D01*
X368300Y190500D01*
X406400Y76200D02*
X415900Y76200D01*
X406400Y76200D02*
X368300Y114300D01*
X111100Y254000D02*
X50800Y254000D01*
X111100Y254000D02*
X161900Y203200D01*
X263500Y152400D02*
X263500Y101600D01*
X288900Y76200D01*
X295300Y76200D01*
X101600Y127000D02*
X50800Y177800D01*
X101600Y127000D02*
X101600Y76200D01*
X127000Y50800D01*
X142900Y50800D01*
M02*
