G04 EAGLE Gerber RS-274X export*
G75*
%MOMM*%
%FSLAX34Y34*%
%LPD*%
%IN*%
%IPPOS*%
%AMOC8*
5,1,8,0,0,1.08239X$1,22.5*%
G01*
%ADD10C,0.254000*%


D10*
X0Y12700D02*
X48Y11593D01*
X193Y10495D01*
X433Y9413D01*
X766Y8356D01*
X1190Y7333D01*
X1701Y6350D01*
X2297Y5416D01*
X2971Y4537D01*
X3720Y3720D01*
X4537Y2971D01*
X5416Y2297D01*
X6350Y1701D01*
X7333Y1190D01*
X8356Y766D01*
X9413Y433D01*
X10495Y193D01*
X11593Y48D01*
X12700Y0D01*
X520700Y0D01*
X521807Y48D01*
X522905Y193D01*
X523987Y433D01*
X525044Y766D01*
X526067Y1190D01*
X527050Y1701D01*
X527984Y2297D01*
X528863Y2971D01*
X529680Y3720D01*
X530429Y4537D01*
X531103Y5416D01*
X531699Y6350D01*
X532210Y7333D01*
X532634Y8356D01*
X532967Y9413D01*
X533207Y10495D01*
X533352Y11593D01*
X533400Y12700D01*
X533400Y444500D01*
X533352Y445607D01*
X533207Y446705D01*
X532967Y447787D01*
X532634Y448844D01*
X532210Y449867D01*
X531699Y450850D01*
X531103Y451784D01*
X530429Y452663D01*
X529680Y453480D01*
X528863Y454229D01*
X527984Y454903D01*
X527050Y455499D01*
X526067Y456010D01*
X525044Y456434D01*
X523987Y456767D01*
X522905Y457007D01*
X521807Y457152D01*
X520700Y457200D01*
X12700Y457200D01*
X11593Y457152D01*
X10495Y457007D01*
X9413Y456767D01*
X8356Y456434D01*
X7333Y456010D01*
X6350Y455499D01*
X5416Y454903D01*
X4537Y454229D01*
X3720Y453480D01*
X2971Y452663D01*
X2297Y451784D01*
X1701Y450850D01*
X1190Y449867D01*
X766Y448844D01*
X433Y447787D01*
X193Y446705D01*
X48Y445607D01*
X0Y444500D01*
X0Y12700D01*
M02*
