M48
;GenerationSoftware,Autodesk,EAGLE,9.5.1*%
;CreationDate,2019-11-11T19:02:06Z*%
FMAT,2
ICI,OFF
METRIC,TZ,000.000
T4C0.786
T3C0.830
T2C0.980
T1C1.105
%
G90
M71
T1
X5080Y17780
X48260Y43180
X5080Y43180
X2540Y43180
X2540Y2540
X5080Y30480
X50800Y2540
X5080Y33020
X5080Y27940
X5080Y25400
X5080Y22860
X5080Y20320
X5080Y2540
X5080Y15240
X48260Y25400
X48260Y27940
X48260Y20320
X48260Y22860
X50800Y43180
X48260Y2540
T2
X14290Y25400
X26350Y25400
X41590Y22860
X29530Y22860
X41590Y7620
X29530Y7620
X26350Y10160
X14290Y10160
X26350Y15240
X14290Y15240
X26350Y40640
X14290Y40640
X41590Y27940
X29530Y27940
X26350Y5080
X14290Y5080
X14290Y30480
X26350Y30480
T3
X49850Y10160
X41590Y10160
X31430Y33020
X39690Y33020
X16190Y35560
X24450Y20320
X16190Y20320
X24450Y35560
T4
X34290Y19050
X31750Y19050
X31750Y11430
X36830Y11430
X39370Y11430
X39370Y19050
X36830Y19050
X34290Y11430
M30